<svg xmlns="http://www.w3.org/2000/svg" width="1280" height="800" viewBox="0 0 1280 800">
<defs><linearGradient id="sky" x2="1" y2="1"><stop stop-color="#17384b"/><stop offset="1" stop-color="#35605e"/></linearGradient><linearGradient id="wave" x2="0" y2="1"><stop stop-color="#79b7ad"/><stop offset="1" stop-color="#1c5265"/></linearGradient></defs>
<rect width="1280" height="800" fill="url(#sky)"/><path d="M0 660Q300 240 750 420T1280 230V800H0" fill="url(#wave)"/><path d="M0 710Q460 320 860 540T1280 500V800H0" fill="#316979"/><path d="M0 800Q400 460 960 680T1280 590V800" fill="#234657"/>
<rect width="1280" height="40" fill="#131e25"/><g fill="#dbe8df" font-family="monospace" font-size="16"><text x="24" y="26">Applications</text><text x="985" y="26">dead@fedora</text></g>
<rect x="150" y="152" width="720" height="420" rx="14" fill="#102526" stroke="#89aaa0" stroke-opacity=".4"/><rect x="150" y="152" width="720" height="43" rx="14" fill="#273c3c"/>
<circle cx="176" cy="174" r="5" fill="#d7b080"/><circle cx="197" cy="174" r="5" fill="#80978e"/><circle cx="218" cy="174" r="5" fill="#80978e"/>
<g font-family="monospace"><text x="195" y="252" font-size="20" fill="#8abfb1">dead@fedora:~$ whoami</text><text x="193" y="328" font-size="51" fill="#e4e6d6">DeadIndian</text><text x="196" y="385" font-size="23" fill="#dfaf7e">Fedora / KDE Plasma</text><text x="196" y="437" font-size="18" fill="#a9c5b9">A desktop that feels like mine.</text><text x="196" y="514" font-size="15" fill="#91ada2">PERSONAL DESKTOP STUDY</text></g>
<rect x="438" y="721" width="400" height="55" rx="12" fill="#182b31" stroke="#90afa4" stroke-opacity=".35"/><g fill="#a8b7a2"><rect x="469" y="737" width="28" height="25" rx="5"/><rect x="525" y="737" width="28" height="25" rx="5"/><rect x="581" y="737" width="28" height="25" rx="5"/><rect x="637" y="737" width="28" height="25" rx="5"/><rect x="693" y="737" width="28" height="25" rx="5"/><rect x="749" y="737" width="28" height="25" rx="5"/></g>
</svg>
